# xmcd
#
# Track frame offsets: 
#        150
#        11825
#        21885
#        32935
#        43517
#        60532
#        71862
#        82732
#        92592
#        105800
#        117107
#        128827
#
# Disc length: 1841 seconds
#
# Revision: 0
# Processed by: cddbd v1.4PL0 Copyright (c) Steve Scherf et al.
# Submitted via: ExactAudioCopy v0.90b4
#
DISCID=8f072f0c
DTITLE=Rex Allen - Lonesome Letter Blues
DYEAR=1900
DGENRE=Country
TTITLE0=Lonesome Letter Blues
TTITLE1=The Bell In The Steeple
TTITLE2=I'll Keep On Lovin' You
TTITLE3=Down The Wrong Highway
TTITLE4=Gotta Have My Bay Back
TTITLE5=Love Gone Cold
TTITLE6=Sure As Your Name's Kate
TTITLE7=Sixteen Hundred Miles
TTITLE8=Faith Of A Child
TTITLE9=Cold, Cold War
TTITLE10=You Don't Care What Happens To Me
TTITLE11=My Confession
EXTD=
EXTT0=
EXTT1=
EXTT2=
EXTT3=
EXTT4=
EXTT5=
EXTT6=
EXTT7=
EXTT8=
EXTT9=
EXTT10=
EXTT11=
PLAYORDER=
